PathFileType	4	(X/Y/Z)	c:/Users/goper/Files/vsCode/490R/osim_files/C03/C03_SSW_05.trc
DataRate	CameraRate	NumFrames	NumMarkers	Units                	OrigDataRate	OrigDataStartFrame	OrigNumFrames
250.00	250.00	4	36	mm	250.0	1704	2726
                Frame#	Time	LPSIS			LASIS			LTH1			LTH2			LTH3			LTH4			LLFE			LMFE			LSH1			LSH2			LSH3			LSH4			LLMAL			LMMAL			LCAL			LMTP5			LTOE			LMTP1			RPSIS			RASIS			RTH1			RTH2			RTH3			RTH4			RLFE			RMFE			RSH1			RSH2			RSH3			RSH4			RLMAL			RMMAL			RCAL			RMTP1			RTOE			RMTP5		
		X1	Y1	Z1	X2	Y2	Z2	X3	Y3	Z3	X4	Y4	Z4	X5	Y5	Z5	X6	Y6	Z6	X7	Y7	Z7	X8	Y8	Z8	X9	Y9	Z9	X10	Y10	Z10	X11	Y11	Z11	X12	Y12	Z12	X13	Y13	Z13	X14	Y14	Z14	X15	Y15	Z15	X16	Y16	Z16	X17	Y17	Z17	X18	Y18	Z18	X19	Y19	Z19	X20	Y20	Z20	X21	Y21	Z21	X22	Y22	Z22	X23	Y23	Z23	X24	Y24	Z24	X25	Y25	Z25	X26	Y26	Z26	X27	Y27	Z27	X28	Y28	Z28	X29	Y29	Z29	X30	Y30	Z30	X31	Y31	Z31	X32	Y32	Z32	X33	Y33	Z33	X34	Y34	Z34	X35	Y35	Z35	X36	Y36	Z36

1704	6.81200	-1913.61487	1024.43970	290.22113	-2097.18701	971.11938	300.97195	-2047.96313	617.09918	370.70456	-2060.77881	557.10632	359.93945	-2118.84595	630.38861	348.14993	-2122.44336	569.13092	340.17938	-2092.07080	477.04459	343.25125	-2066.87256	472.09943	232.97823	-2069.22070	282.91022	348.16071	-2084.47266	239.79193	339.71237	-2127.66943	301.43762	345.50092	-2134.43091	254.55942	338.56100	-2151.26294	96.32757	300.56400	-2167.76025	114.25169	223.02641	-2092.32471	62.42215	262.26611	-2295.30542	54.64846	308.83704	-2323.52637	79.84890	255.33025	-2299.56616	63.33894	215.12378	-1901.41394	1005.85217	179.20338	-2059.34937	952.60797	101.61276	-1902.10730	579.94568	114.40795	-1899.88013	518.29114	122.74597	-1950.92175	577.83771	70.69277	-1956.86304	516.37610	69.84302	-1938.94482	447.13303	81.01500	-1973.92578	448.71564	190.25111	-1744.15784	397.80554	103.76914	-1708.83423	366.64368	107.41409	-1773.32520	348.99442	77.95116	-1736.01575	327.60538	84.90734	-1613.09485	238.35706	116.35741	-1635.73315	221.44385	192.48003	-1565.16663	287.67426	161.58359	-1620.83923	89.86993	194.44470	-1644.21765	74.18287	151.47147	-1582.82458	107.67369	96.35793
1705	6.81600	-1919.03430	1025.33936	290.22910	-2102.46924	971.87354	301.60532	-2050.64722	617.60205	370.33102	-2063.46655	557.60101	360.47180	-2122.29761	630.48450	348.88312	-2125.38599	569.18488	340.96472	-2094.28369	477.41174	343.77097	-2068.64648	472.41940	233.46526	-2070.40186	283.41266	348.35669	-2085.23950	239.89796	340.28992	-2128.88257	301.59711	345.64627	-2135.52979	254.77422	338.73694	-2151.62744	96.34243	300.44363	-2167.73877	114.19571	222.88388	-2092.42578	62.49967	262.32352	-2295.45752	54.50022	308.70938	-2323.23511	79.02137	255.33403	-2299.69629	62.61021	215.61058	-1906.86060	1006.46808	179.15115	-2064.84424	953.21118	102.07692	-1912.05261	579.33582	114.64941	-1911.29663	517.56641	122.66204	-1960.72156	577.82111	70.74693	-1967.09009	515.65784	70.76533	-1950.30884	447.20004	80.77245	-1985.12427	449.14658	190.23357	-1755.49561	399.02191	103.29421	-1720.01611	368.14334	106.85526	-1784.36731	349.94418	77.59969	-1746.86548	328.82565	84.52497	-1622.96277	241.21933	116.12428	-1645.54834	224.12303	192.25037	-1575.19763	290.71530	161.67882	-1630.20300	92.61684	193.83521	-1652.59155	75.93555	150.98274	-1591.78613	110.80026	95.99564
1706	6.82000	-1924.21704	1026.31226	290.29898	-2107.83398	972.61737	302.22012	-2054.28833	618.22595	371.58981	-2066.18555	558.03790	361.00275	-2125.69604	630.41803	349.63736	-2128.30566	569.07159	341.81638	-2096.62134	477.69278	344.06339	-2070.56860	472.72452	233.84230	-2071.65649	283.85165	348.44531	-2086.58008	240.54108	341.18048	-2130.31787	301.81372	345.77963	-2136.74561	254.41034	338.29117	-2152.06030	96.68188	300.40134	-2167.97583	114.22072	222.82274	-2092.45752	62.62614	262.30646	-2295.63257	54.39994	308.47189	-2323.39771	78.54633	255.02193	-2299.70361	62.43172	214.77899	-1912.22864	1007.00171	179.16701	-2070.36694	953.88385	102.50803	-1922.01965	578.96326	114.78592	-1921.68323	517.29431	123.41651	-1970.49377	577.95642	70.77927	-1977.64673	515.98077	70.67900	-1961.68286	447.29184	80.57495	-1995.83899	449.73676	190.39130	-1766.90698	400.31659	102.61720	-1731.05566	369.71149	106.30574	-1795.46045	350.99048	77.24370	-1757.72583	330.19562	84.17226	-1632.77417	243.93958	115.94119	-1655.53577	226.73189	192.00026	-1584.58569	293.31238	161.80566	-1640.24622	95.20718	193.17186	-1661.52136	77.75529	150.50908	-1601.40857	113.56914	95.51646
1707	6.82400	-1929.43738	1027.18567	290.40649	-2113.13721	973.29584	302.79858	-2057.40942	618.73956	371.99188	-2068.13159	558.06079	361.41043	-2129.23315	630.29297	350.57266	-2131.28882	568.84546	342.78928	-2098.92065	477.87274	344.31256	-2072.61060	473.03525	234.12035	-2072.89478	284.27988	348.50357	-2087.28564	240.83873	340.05191	-2131.61133	301.93021	345.89526	-2137.82275	254.53539	338.37695	-2152.28784	96.74506	300.27795	-2168.17969	114.12595	222.95404	-2092.53516	62.70689	262.33020	-2295.78149	54.29122	308.21149	-2323.55298	78.07641	254.65616	-2300.50732	61.83325	215.40837	-1917.55798	1007.52094	179.25041	-2075.87329	954.63208	103.01333	-1931.96033	578.71704	115.03238	-1932.40027	517.03802	123.65205	-1980.39270	578.19745	70.64259	-1988.20386	516.31830	70.65129	-1973.15222	447.46362	80.42341	-2006.75732	450.46844	190.59715	-1778.00354	401.78598	102.05409	-1742.14673	371.23984	105.78513	-1806.48401	352.06085	76.98692	-1768.67395	331.57434	83.75481	-1642.60620	246.45663	115.82149	-1665.38037	229.25465	191.79858	-1593.79297	295.44867	161.92279	-1650.65198	97.59695	192.61206	-1671.02686	79.64179	150.05293	-1611.99268	115.96774	95.40856
